<svg width="24" height="23" viewBox="0 0 24 23" fill="none" xmlns="http://www.w3.org/2000/svg">
<path d="M17.975 13.0951L11.3917 19.6785C11.0956 19.9942 10.934 20.4128 10.941 20.8456C10.948 21.2784 11.1232 21.6915 11.4293 21.9975C11.7355 22.3034 12.1487 22.4783 12.5816 22.485C13.0144 22.4917 13.4328 22.3298 13.7484 22.0335L23.1767 12.6068C23.332 12.4524 23.4552 12.2688 23.5393 12.0666C23.6235 11.8643 23.6667 11.6475 23.6667 11.4285C23.6667 11.2095 23.6235 10.9926 23.5393 10.7904C23.4552 10.5882 23.332 10.4046 23.1767 10.2501L13.7484 0.821802C13.5946 0.662618 13.4107 0.535648 13.2074 0.4483C13.004 0.360951 12.7853 0.314974 12.564 0.313051C12.3427 0.311128 12.1233 0.353298 11.9184 0.437099C11.7136 0.520901 11.5275 0.644656 11.371 0.801144C11.2145 0.957632 11.0908 1.14372 11.007 1.34855C10.9232 1.55337 10.881 1.77284 10.8829 1.99414C10.8849 2.21544 10.9308 2.43414 11.0182 2.63748C11.1055 2.84082 11.2325 3.02472 11.3917 3.17847L17.975 9.7618H1.99836C1.55633 9.7618 1.13241 9.9374 0.819845 10.25C0.507284 10.5625 0.33169 10.9864 0.33169 11.4285C0.33169 11.8705 0.507284 12.2944 0.819845 12.607C1.13241 12.9195 1.55633 13.0951 1.99836 13.0951H17.975Z" fill="#FBFBF9"/>
</svg>
