<svg width="24" height="23" viewBox="0 0 24 23" fill="none" xmlns="http://www.w3.org/2000/svg">
<path d="M6.02333 13.0951L12.6067 19.6785C12.9028 19.9942 13.0644 20.4128 13.0574 20.8456C13.0503 21.2784 12.8752 21.6915 12.569 21.9975C12.2628 22.3034 11.8496 22.4783 11.4168 22.485C10.984 22.4917 10.5655 22.3298 10.25 22.0335L0.821662 12.6068C0.666354 12.4524 0.543105 12.2688 0.459002 12.0666C0.3749 11.8643 0.331604 11.6475 0.331604 11.4285C0.331604 11.2095 0.3749 10.9926 0.459002 10.7904C0.543105 10.5882 0.666354 10.4046 0.821662 10.2501L10.25 0.821802C10.4037 0.662618 10.5876 0.535648 10.791 0.4483C10.9943 0.360951 11.213 0.314974 11.4343 0.313051C11.6556 0.311128 11.8751 0.353298 12.0799 0.437099C12.2847 0.520901 12.4708 0.644656 12.6273 0.801144C12.7838 0.957632 12.9076 1.14372 12.9914 1.34855C13.0752 1.55337 13.1173 1.77284 13.1154 1.99414C13.1135 2.21544 13.0675 2.43414 12.9802 2.63748C12.8928 2.84082 12.7658 3.02472 12.6067 3.17847L6.02333 9.7618H22C22.442 9.7618 22.8659 9.9374 23.1785 10.25C23.4911 10.5625 23.6667 10.9864 23.6667 11.4285C23.6667 11.8705 23.4911 12.2944 23.1785 12.607C22.8659 12.9195 22.442 13.0951 22 13.0951H6.02333Z" fill="#FBFBF9"/>
</svg>
